<?xml version="1.0" standalone="no"?>
<!DOCTYPE svg PUBLIC "-//W3C//DTD SVG 20010904//EN"
 "http://www.w3.org/TR/2001/REC-SVG-20010904/DTD/svg10.dtd">
<svg version="1.0" xmlns="http://www.w3.org/2000/svg"
 width="1024.000000pt" height="1024.000000pt" viewBox="0 0 1024.000000 1024.000000"
 preserveAspectRatio="xMidYMid meet">
<metadata>
Created by potrace 1.11, written by Peter Selinger 2001-2013
</metadata>
<g transform="translate(0.000000,1024.000000) scale(0.100000,-0.100000)"
fill="#000000" stroke="none">
<path d="M4805 10229 c-504 -29 -1050 -149 -1533 -335 -1331 -514 -2412 -1595
-2926 -2926 -458 -1187 -458 -2509 0 -3696 340 -879 937 -1667 1697 -2240 952
-718 2135 -1084 3313 -1024 1178 60 2221 478 3121 1250 676 580 1201 1358
1490 2207 310 912 358 1882 140 2825 -46 196 -180 630 -206 665 -4 5 -16 33
-26 60 -32 89 -146 337 -208 455 -249 472 -526 854 -892 1229 -1042 1065
-2472 1617 -3970 1530z m2185 -2824 c128 -21 259 -56 412 -111 113 -40 147
-59 311 -168 101 -68 289 -186 418 -263 230 -138 604 -353 614 -353 3 0 5 11
5 24 0 89 182 202 365 225 81 10 129 28 190 72 59 42 106 103 127 164 9 27 21
51 26 53 16 5 35 -99 30 -169 -8 -126 -71 -208 -259 -336 -152 -104 -179 -138
-179 -227 0 -62 21 -113 85 -207 57 -83 57 -83 53 -147 l-4 -64 27 30 c16 17
31 47 35 66 6 36 3 45 -55 154 -16 28 -21 50 -17 68 l7 25 42 -32 c66 -51 282
-271 299 -304 26 -52 29 -114 13 -320 -27 -358 -26 -368 32 -530 74 -204 93
-271 93 -326 0 -44 -3 -51 -31 -68 -17 -11 -81 -34 -142 -51 -62 -18 -129 -41
-151 -52 -54 -27 -158 -48 -245 -48 -73 0 -74 0 -105 38 -69 82 -204 209 -251
233 -28 15 -86 37 -130 49 -94 25 -254 99 -353 163 -91 59 -208 170 -252 241
-19 30 -38 55 -42 56 -3 0 -17 -17 -29 -37 -13 -20 -52 -75 -87 -122 -88 -116
-96 -137 -95 -251 0 -164 51 -330 148 -490 32 -52 87 -151 123 -219 59 -114
64 -129 60 -173 -6 -57 -82 -215 -218 -452 -50 -87 -95 -168 -100 -181 -5 -12
-16 -84 -24 -160 -19 -161 -41 -258 -65 -279 -15 -14 -22 -13 -69 9 -73 34
-245 150 -306 206 l-51 48 25 45 c14 25 46 76 72 113 39 55 53 88 73 168 14
55 28 143 32 195 l5 95 -39 45 c-22 25 -103 125 -182 223 l-142 178 36 40 c55
61 96 131 165 279 193 417 300 767 300 978 0 90 -19 193 -44 240 -14 25 -14
22 -9 -43 7 -86 -17 -246 -58 -394 -78 -276 -296 -738 -475 -1006 -49 -74 -54
-88 -68 -175 -8 -52 -17 -126 -21 -165 -21 -222 -114 -422 -269 -575 -75 -73
-79 -93 -47 -185 l18 -50 -5 75 c-5 82 0 92 49 104 25 5 33 -3 107 -102 75
-101 82 -116 131 -260 28 -85 51 -162 51 -173 0 -18 -10 -19 -239 -19 l-240 0
-103 128 c-132 161 -247 313 -288 381 l-33 52 17 62 c77 293 95 591 45 753
-23 76 -82 197 -153 318 -54 91 -164 256 -171 256 -3 0 11 -28 30 -62 50 -92
102 -235 131 -356 26 -112 44 -363 30 -434 -6 -35 -7 -35 -89 -52 -393 -77
-1005 -64 -1396 31 -165 39 -467 129 -683 202 -82 27 -148 48 -148 46 0 -3
121 -66 270 -140 148 -75 270 -140 270 -144 0 -5 -36 -41 -80 -80 -49 -45 -80
-80 -80 -93 0 -35 61 -110 194 -238 72 -69 167 -161 212 -205 l82 -80 41 -127
c23 -73 41 -147 41 -173 l0 -45 -225 0 -224 0 -6 38 c-18 113 -36 187 -49 207
-26 39 -77 72 -154 98 -41 14 -98 41 -128 59 -101 61 -298 221 -416 338 -106
105 -118 120 -118 151 0 20 24 154 54 300 30 145 49 255 43 245 -97 -159 -132
-196 -507 -537 -336 -306 -400 -369 -400 -392 0 -43 24 -201 28 -182 22 116
62 159 89 97 7 -15 35 -52 61 -82 52 -58 85 -131 107 -237 23 -110 40 -103
-240 -103 l-242 0 -63 143 c-34 78 -83 182 -107 230 l-44 88 11 147 c22 307
24 315 180 862 l148 515 17 538 c10 295 15 540 12 543 -3 3 -81 -12 -174 -34
-514 -124 -843 -169 -1161 -159 -260 8 -390 43 -474 127 -48 47 -54 63 -48
130 9 108 158 236 504 435 199 115 260 184 273 310 5 51 8 55 27 49 72 -22
138 -103 162 -196 26 -100 3 -259 -47 -322 -44 -56 -184 -107 -259 -95 -69 11
-233 10 -289 -2 -61 -13 -122 -55 -158 -111 -23 -34 -28 -52 -28 -104 0 -53 4
-67 25 -89 83 -89 255 -104 620 -54 382 53 761 147 1330 333 574 186 821 265
1060 336 906 271 1312 411 1670 575 223 102 360 156 615 240 299 100 446 143
523 154 95 14 281 12 382 -4z"/>
</g>
</svg>
